<?xml version="1.0" standalone="no"?>
<!DOCTYPE svg PUBLIC "-//W3C//DTD SVG 20010904//EN"
 "http://www.w3.org/TR/2001/REC-SVG-20010904/DTD/svg10.dtd">
<svg version="1.0" xmlns="http://www.w3.org/2000/svg"
 width="225.000000pt" height="225.000000pt" viewBox="0 0 225.000000 225.000000"
 preserveAspectRatio="xMidYMid meet">
<metadata>
Created by potrace 1.14, written by Peter Selinger 2001-2017
</metadata>
<g transform="translate(0.000000,225.000000) scale(0.100000,-0.100000)"
fill="#000000" stroke="none">
<path d="M1015 2110 c-22 -5 -50 -11 -63 -14 -73 -16 -212 -81 -212 -100 0 -5
-3 -7 -6 -3 -7 7 -18 -2 -83 -63 -91 -87 -144 -172 -177 -290 -17 -59 -19
-104 -18 -505 0 -242 4 -451 8 -465 4 -14 9 -36 12 -49 17 -84 119 -240 196
-303 147 -117 295 -168 476 -163 301 9 564 213 634 492 14 56 20 953 6 953 -4
0 -8 7 -8 15 0 61 -76 207 -150 289 -80 87 -254 184 -364 202 -66 10 -213 13
-251 4z"/>
</g>
</svg>
